# xmcd
#
# Track frame offsets: 
#        150
#        13926
#        29293
#        42306
#        62293
#        75638
#        92779
#        112179
#        124931
#        138099
#        155857
#
# Disc length: 2192 seconds
#
# Revision: 1
# Processed by: cddbd v1.5.2PL0 Copyright (c) Steve Scherf et al.
# Submitted via: ExactAudioCopy v1.0b3
#
DISCID=90088e0b
DTITLE=The Kinleys - All In The Family
DYEAR=2004
DGENRE=Country
TTITLE0=Climbin' Up Mt. Everest
TTITLE1=Love Train
TTITLE2=Little Shoulders
TTITLE3=Crazy Love
TTITLE4=How Can It Be That You Don't Love Me Anymore
TTITLE5=I Will
TTITLE6=Holding On For Life
TTITLE7=The Price Of Love
TTITLE8=Ridiculous
TTITLE9=Only A Prayer
TTITLE10=My Baby Blue (A Lullabye) (Bonus Track)
EXTD=
EXTT0=
EXTT1=
EXTT2=
EXTT3=
EXTT4=
EXTT5=
EXTT6=
EXTT7=
EXTT8=
EXTT9=
EXTT10=
PLAYORDER=
